<?xml version="1.0" standalone="no"?>
<!DOCTYPE svg PUBLIC "-//W3C//DTD SVG 20010904//EN"
 "http://www.w3.org/TR/2001/REC-SVG-20010904/DTD/svg10.dtd">
<svg version="1.0" xmlns="http://www.w3.org/2000/svg"
 width="512.000000pt" height="512.000000pt" viewBox="0 0 512.000000 512.000000"
 preserveAspectRatio="xMidYMid meet">
<metadata>
Created by potrace 1.14, written by Peter Selinger 2001-2017
</metadata>
<g transform="translate(0.000000,512.000000) scale(0.100000,-0.100000)"
fill="#000000" stroke="none">
<path d="M0 5109 c0 -5 5 -7 10 -4 5 3 10 8 10 11 0 2 -4 4 -10 4 -5 0 -10 -5
-10 -11z"/>
<path d="M5105 5110 c3 -5 8 -10 11 -10 2 0 4 5 4 10 0 6 -5 10 -11 10 -5 0
-7 -4 -4 -10z"/>
<path d="M781 4684 c-30 -8 -77 -27 -105 -42 -65 -34 -163 -133 -198 -198 -61
-114 -58 -6 -58 -1889 0 -1878 -3 -1760 55 -1875 54 -106 172 -203 293 -240
63 -20 96 -20 1776 -20 1884 0 1776 -3 1898 62 76 40 156 120 196 196 66 124
63 14 60 1909 l-3 1718 -23 59 c-66 174 -211 298 -383 326 -42 6 -639 10
-1759 9 -1448 0 -1703 -2 -1749 -15z m2947 -1043 c136 -40 248 -107 333 -199
87 -94 139 -208 139 -309 0 -55 -20 -74 -74 -71 -22 1 -51 -1 -63 -6 -16 -5
-23 -3 -23 5 0 7 -10 9 -30 6 -16 -4 -30 -2 -30 3 0 5 -9 11 -19 15 -17 5 -28
28 -38 80 -2 11 -8 22 -13 23 -6 2 -10 8 -10 14 0 5 -7 16 -15 24 -8 8 -20 23
-27 32 -20 27 -85 72 -103 72 -9 0 -13 5 -10 10 5 8 -15 13 -41 9 -4 0 -10 3
-13 8 -10 14 -175 52 -185 43 -5 -5 -18 -5 -30 -1 -11 5 -30 7 -41 6 -11 -2
-49 -6 -84 -9 -67 -7 -165 -36 -184 -55 -6 -6 -14 -11 -18 -11 -5 0 -20 -11
-35 -25 -15 -14 -31 -25 -36 -25 -15 0 -38 -27 -38 -45 0 -8 -6 -18 -14 -21
-21 -8 -39 -98 -33 -165 14 -160 135 -246 477 -339 102 -28 228 -64 280 -82
251 -83 410 -222 465 -406 14 -46 20 -221 10 -277 -3 -16 -7 -37 -8 -45 -1 -8
-8 -26 -15 -38 -8 -13 -11 -26 -9 -29 6 -5 -31 -88 -54 -120 -9 -13 -19 -20
-22 -16 -4 3 -7 -1 -7 -10 0 -19 -108 -128 -118 -119 -2 2 -17 -9 -33 -24 -16
-15 -29 -25 -29 -21 0 4 -22 -7 -50 -23 -30 -18 -50 -25 -50 -17 0 8 -4 7 -10
-3 -5 -8 -10 -12 -10 -7 0 4 -12 0 -26 -10 -15 -9 -41 -18 -59 -18 -17 -1 -36
-5 -43 -8 -44 -28 -404 -20 -497 10 -11 4 -22 8 -25 8 -3 1 -12 5 -20 8 -8 3
-41 16 -73 27 -31 12 -63 27 -70 33 -6 7 -25 19 -42 27 -16 8 -63 48 -102 88
-98 98 -162 226 -178 356 l-7 57 138 -3 138 -3 11 -50 c35 -155 149 -251 345
-291 173 -35 387 -1 507 81 106 72 169 185 160 288 -6 78 -55 175 -80 160 -7
-4 -8 1 -3 13 4 10 4 15 0 11 -6 -5 -57 24 -74 43 -3 3 -9 6 -15 7 -5 1 -41
16 -80 34 -38 18 -74 33 -80 34 -5 0 -17 4 -25 7 -8 3 -35 11 -60 18 -25 7
-58 17 -75 24 -16 6 -34 10 -38 8 -4 -1 -16 2 -26 7 -10 6 -33 13 -50 16 -18
3 -49 12 -69 19 -20 8 -53 19 -72 26 -19 7 -39 17 -44 21 -6 5 -16 9 -24 9
-21 0 -116 46 -131 64 -7 9 -19 16 -27 16 -7 0 -30 15 -50 33 -114 102 -107
93 -155 183 -79 146 -80 328 -2 492 37 80 166 206 258 254 151 78 250 98 455
94 121 -3 171 -8 228 -25z m-1916 -15 c104 -20 178 -50 263 -107 124 -83 201
-194 246 -354 29 -103 32 -294 6 -400 -23 -92 -76 -200 -131 -268 -45 -55
-197 -167 -227 -167 -9 0 -19 -3 -23 -7 -4 -4 -35 -16 -69 -26 -53 -16 -108
-20 -392 -24 -181 -3 -332 -7 -335 -10 -3 -2 -6 -180 -8 -394 l-3 -389 -129 0
-130 0 0 1080 0 1080 429 0 c328 0 446 -3 503 -14z"/>
<path d="M1146 3378 c-3 -13 -6 -213 -6 -445 l0 -423 283 0 c299 0 364 8 448
51 100 50 174 154 200 278 26 125 -6 330 -61 388 -9 11 -23 29 -29 41 -6 12
-16 22 -22 22 -5 0 -21 11 -35 25 -14 14 -37 28 -52 31 -15 4 -29 11 -33 15
-7 12 -105 30 -123 23 -8 -3 -17 -1 -21 5 -4 7 -95 11 -274 11 l-269 0 -6 -22z"/>
<path d="M0 10 c0 -5 5 -10 11 -10 5 0 7 5 4 10 -3 6 -8 10 -11 10 -2 0 -4 -4
-4 -10z"/>
<path d="M5105 10 c-3 -5 -1 -10 4 -10 6 0 11 5 11 10 0 6 -2 10 -4 10 -3 0
-8 -4 -11 -10z"/>
</g>
</svg>
